<svg width="169" height="99" viewBox="0 0 169 99" fill="none" xmlns="http://www.w3.org/2000/svg">
<circle cx="97" cy="13" r="72" fill="#DB6262"/>
<circle cx="72" cy="27" r="72" fill="#2C5D2D"/>
<path d="M53.8013 51.6421H49.5825V56H47.3853V45.3359H54.3286V47.1157H49.5825V49.8696H53.8013V51.6421ZM57.6978 56H55.5737V48.0752H57.6978V56ZM55.4492 46.0244C55.4492 45.707 55.5542 45.4458 55.7642 45.2407C55.979 45.0356 56.2695 44.9331 56.6357 44.9331C56.9971 44.9331 57.2852 45.0356 57.5 45.2407C57.7148 45.4458 57.8223 45.707 57.8223 46.0244C57.8223 46.3467 57.7124 46.6104 57.4927 46.8154C57.2778 47.0205 56.9922 47.123 56.6357 47.123C56.2793 47.123 55.9912 47.0205 55.7715 46.8154C55.5566 46.6104 55.4492 46.3467 55.4492 46.0244ZM61.9824 46.127V48.0752H63.3374V49.6279H61.9824V53.583C61.9824 53.876 62.0386 54.0859 62.1509 54.2129C62.2632 54.3398 62.478 54.4033 62.7954 54.4033C63.0298 54.4033 63.2373 54.3862 63.418 54.3521V55.9561C63.0029 56.083 62.5757 56.1465 62.1362 56.1465C60.6519 56.1465 59.895 55.397 59.8657 53.8979V49.6279H58.7085V48.0752H59.8657V46.127H61.9824ZM73.0273 52.4478C72.9443 53.5952 72.5195 54.4985 71.7529 55.1577C70.9912 55.8169 69.9854 56.1465 68.7354 56.1465C67.3682 56.1465 66.2915 55.6875 65.5054 54.7695C64.7241 53.8467 64.3335 52.582 64.3335 50.9756V50.3237C64.3335 49.2983 64.5142 48.395 64.8755 47.6138C65.2368 46.8325 65.752 46.2344 66.4209 45.8193C67.0947 45.3994 67.876 45.1895 68.7646 45.1895C69.9951 45.1895 70.9863 45.519 71.7383 46.1782C72.4902 46.8374 72.9248 47.7627 73.042 48.9541H70.8447C70.791 48.2656 70.5981 47.7676 70.2661 47.46C69.939 47.1475 69.4385 46.9912 68.7646 46.9912C68.0322 46.9912 67.4829 47.2549 67.1167 47.7822C66.7554 48.3047 66.5698 49.1177 66.5601 50.2212V51.0269C66.5601 52.1792 66.7334 53.0215 67.0801 53.5537C67.4316 54.0859 67.9834 54.3521 68.7354 54.3521C69.4141 54.3521 69.9194 54.1982 70.2515 53.8906C70.5884 53.5781 70.7812 53.0972 70.8301 52.4478H73.0273ZM74.0015 51.9644C74.0015 51.1782 74.1528 50.4775 74.4556 49.8623C74.7583 49.2471 75.1929 48.771 75.7593 48.4341C76.3306 48.0972 76.9922 47.9287 77.7441 47.9287C78.8135 47.9287 79.6851 48.2559 80.3589 48.9102C81.0376 49.5645 81.416 50.4531 81.4941 51.5762L81.5088 52.1182C81.5088 53.334 81.1694 54.3105 80.4907 55.0479C79.812 55.7803 78.9014 56.1465 77.7588 56.1465C76.6162 56.1465 75.7031 55.7803 75.0195 55.0479C74.3408 54.3154 74.0015 53.3193 74.0015 52.0596V51.9644ZM76.1182 52.1182C76.1182 52.8701 76.2598 53.4463 76.543 53.8467C76.8262 54.2422 77.2314 54.4399 77.7588 54.4399C78.2715 54.4399 78.6719 54.2446 78.96 53.854C79.248 53.4585 79.3921 52.8286 79.3921 51.9644C79.3921 51.2271 79.248 50.6558 78.96 50.2505C78.6719 49.8452 78.2666 49.6426 77.7441 49.6426C77.2266 49.6426 76.8262 49.8452 76.543 50.2505C76.2598 50.6509 76.1182 51.2734 76.1182 52.1182ZM82.4829 51.979C82.4829 50.7437 82.7588 49.7598 83.3105 49.0273C83.8672 48.2949 84.6265 47.9287 85.5884 47.9287C86.3599 47.9287 86.9971 48.2168 87.5 48.793V44.75H89.624V56H87.7124L87.6099 55.1577C87.0825 55.8169 86.4038 56.1465 85.5737 56.1465C84.6411 56.1465 83.8916 55.7803 83.3252 55.0479C82.7637 54.3105 82.4829 53.2876 82.4829 51.979ZM84.5996 52.1328C84.5996 52.875 84.729 53.4438 84.9878 53.8394C85.2466 54.2349 85.6226 54.4326 86.1157 54.4326C86.77 54.4326 87.2314 54.1567 87.5 53.605V50.4775C87.2363 49.9258 86.7798 49.6499 86.1304 49.6499C85.1099 49.6499 84.5996 50.4775 84.5996 52.1328ZM94.9121 56.1465C93.75 56.1465 92.8027 55.79 92.0703 55.0771C91.3428 54.3643 90.979 53.4146 90.979 52.228V52.0229C90.979 51.2271 91.1328 50.5166 91.4404 49.8916C91.748 49.2617 92.1826 48.7783 92.7441 48.4414C93.3105 48.0996 93.9551 47.9287 94.6777 47.9287C95.7617 47.9287 96.6138 48.2705 97.2339 48.9541C97.8589 49.6377 98.1714 50.6069 98.1714 51.8618V52.7261H93.125C93.1934 53.2437 93.3984 53.6587 93.7402 53.9712C94.0869 54.2837 94.5239 54.4399 95.0513 54.4399C95.8667 54.4399 96.5039 54.1445 96.9629 53.5537L98.0029 54.7183C97.6855 55.1675 97.2559 55.519 96.7139 55.7729C96.1719 56.022 95.5713 56.1465 94.9121 56.1465ZM94.6704 49.6426C94.2505 49.6426 93.9087 49.7842 93.645 50.0674C93.3862 50.3506 93.2202 50.7559 93.147 51.2832H96.0913V51.1147C96.0815 50.646 95.9546 50.2847 95.7104 50.0308C95.4663 49.772 95.1196 49.6426 94.6704 49.6426ZM47.6855 74H45.4883V63.3359H47.6855V74ZM51.5381 66.0752L51.604 66.9907C52.1704 66.2827 52.9297 65.9287 53.8818 65.9287C54.7217 65.9287 55.3467 66.1753 55.7568 66.6685C56.167 67.1616 56.377 67.8989 56.3867 68.8804V74H54.27V68.9316C54.27 68.4824 54.1724 68.1577 53.9771 67.9575C53.7817 67.7524 53.457 67.6499 53.0029 67.6499C52.4072 67.6499 51.9604 67.9038 51.6626 68.4116V74H49.5459V66.0752H51.5381ZM62.29 71.8101C62.29 71.5513 62.1606 71.3486 61.9019 71.2021C61.6479 71.0508 61.2378 70.9165 60.6714 70.7993C58.7866 70.4038 57.8442 69.603 57.8442 68.397C57.8442 67.6938 58.1348 67.1079 58.7158 66.6392C59.3018 66.1655 60.0659 65.9287 61.0083 65.9287C62.0142 65.9287 62.8174 66.1655 63.418 66.6392C64.0234 67.1128 64.3262 67.728 64.3262 68.4849H62.2095C62.2095 68.1821 62.1118 67.9331 61.9165 67.7378C61.7212 67.5376 61.416 67.4375 61.001 67.4375C60.6445 67.4375 60.3687 67.5181 60.1733 67.6792C59.978 67.8403 59.8804 68.0454 59.8804 68.2944C59.8804 68.5288 59.9902 68.7192 60.21 68.8657C60.4346 69.0073 60.8105 69.1318 61.3379 69.2393C61.8652 69.3418 62.3096 69.459 62.6709 69.5908C63.7891 70.001 64.3481 70.7114 64.3481 71.7222C64.3481 72.4448 64.0381 73.0308 63.418 73.48C62.7979 73.9243 61.9971 74.1465 61.0156 74.1465C60.3516 74.1465 59.7607 74.0293 59.2432 73.7949C58.7305 73.5557 58.3276 73.231 58.0347 72.8208C57.7417 72.4058 57.5952 71.959 57.5952 71.4805H59.6021C59.6216 71.8564 59.7607 72.1445 60.0195 72.3447C60.2783 72.5449 60.625 72.645 61.0596 72.645C61.4648 72.645 61.77 72.5693 61.9751 72.418C62.1851 72.2617 62.29 72.0591 62.29 71.8101ZM68.252 64.127V66.0752H69.6069V67.6279H68.252V71.583C68.252 71.876 68.3081 72.0859 68.4204 72.2129C68.5327 72.3398 68.7476 72.4033 69.0649 72.4033C69.2993 72.4033 69.5068 72.3862 69.6875 72.3521V73.9561C69.2725 74.083 68.8452 74.1465 68.4058 74.1465C66.9214 74.1465 66.1646 73.397 66.1353 71.8979V67.6279H64.978V66.0752H66.1353V64.127H68.252ZM73.02 74H70.896V66.0752H73.02V74ZM70.7715 64.0244C70.7715 63.707 70.8765 63.4458 71.0864 63.2407C71.3013 63.0356 71.5918 62.9331 71.958 62.9331C72.3193 62.9331 72.6074 63.0356 72.8223 63.2407C73.0371 63.4458 73.1445 63.707 73.1445 64.0244C73.1445 64.3467 73.0347 64.6104 72.8149 64.8154C72.6001 65.0205 72.3145 65.123 71.958 65.123C71.6016 65.123 71.3135 65.0205 71.0938 64.8154C70.8789 64.6104 70.7715 64.3467 70.7715 64.0244ZM77.3047 64.127V66.0752H78.6597V67.6279H77.3047V71.583C77.3047 71.876 77.3608 72.0859 77.4731 72.2129C77.5854 72.3398 77.8003 72.4033 78.1177 72.4033C78.3521 72.4033 78.5596 72.3862 78.7402 72.3521V73.9561C78.3252 74.083 77.8979 74.1465 77.4585 74.1465C75.9741 74.1465 75.2173 73.397 75.188 71.8979V67.6279H74.0308V66.0752H75.188V64.127H77.3047ZM84.585 73.1943C84.0625 73.8291 83.3398 74.1465 82.417 74.1465C81.5674 74.1465 80.918 73.9023 80.4688 73.4141C80.0244 72.9258 79.7974 72.2104 79.7876 71.2681V66.0752H81.9043V71.1948C81.9043 72.02 82.2803 72.4326 83.0322 72.4326C83.75 72.4326 84.2432 72.1836 84.5117 71.6855V66.0752H86.6357V74H84.6436L84.585 73.1943ZM90.7666 64.127V66.0752H92.1216V67.6279H90.7666V71.583C90.7666 71.876 90.8228 72.0859 90.9351 72.2129C91.0474 72.3398 91.2622 72.4033 91.5796 72.4033C91.814 72.4033 92.0215 72.3862 92.2021 72.3521V73.9561C91.7871 74.083 91.3599 74.1465 90.9204 74.1465C89.436 74.1465 88.6792 73.397 88.6499 71.8979V67.6279H87.4927V66.0752H88.6499V64.127H90.7666ZM96.9482 74.1465C95.7861 74.1465 94.8389 73.79 94.1064 73.0771C93.3789 72.3643 93.0151 71.4146 93.0151 70.228V70.0229C93.0151 69.2271 93.1689 68.5166 93.4766 67.8916C93.7842 67.2617 94.2188 66.7783 94.7803 66.4414C95.3467 66.0996 95.9912 65.9287 96.7139 65.9287C97.7979 65.9287 98.6499 66.2705 99.27 66.9541C99.895 67.6377 100.208 68.6069 100.208 69.8618V70.7261H95.1611C95.2295 71.2437 95.4346 71.6587 95.7764 71.9712C96.123 72.2837 96.5601 72.4399 97.0874 72.4399C97.9028 72.4399 98.54 72.1445 98.999 71.5537L100.039 72.7183C99.7217 73.1675 99.292 73.519 98.75 73.7729C98.208 74.022 97.6074 74.1465 96.9482 74.1465ZM96.7065 67.6426C96.2866 67.6426 95.9448 67.7842 95.6812 68.0674C95.4224 68.3506 95.2563 68.7559 95.1831 69.2832H98.1274V69.1147C98.1177 68.646 97.9907 68.2847 97.7466 68.0308C97.5024 67.772 97.1558 67.6426 96.7065 67.6426Z" fill="white"/>
<path d="M67.71 22.59C67.5601 22.3712 67.3295 22.2209 67.0688 22.1721C66.8081 22.1234 66.5388 22.1802 66.32 22.33L59.79 26.78C59.6559 26.8718 59.5462 26.9949 59.4705 27.1387C59.3947 27.2824 59.3551 27.4425 59.3551 27.605C59.3551 27.7675 59.3947 27.9275 59.4705 28.0713C59.5462 28.215 59.6559 28.3382 59.79 28.43L66.32 32.88C66.4282 32.9561 66.5506 33.01 66.6798 33.0385C66.8091 33.067 66.9427 33.0695 67.0729 33.046C67.2032 33.0224 67.3274 32.9733 67.4385 32.9013C67.5496 32.8294 67.6454 32.7362 67.7201 32.627C67.7949 32.5178 67.8473 32.3948 67.8742 32.2652C67.9011 32.1356 67.902 32.002 67.8769 31.872C67.8518 31.7421 67.8011 31.6184 67.7278 31.5082C67.6545 31.398 67.5601 31.3034 67.45 31.23L62.13 27.61L67.45 24C67.5611 23.9257 67.6562 23.8299 67.7297 23.7183C67.8032 23.6066 67.8535 23.4814 67.8778 23.3499C67.902 23.2185 67.8996 23.0835 67.8708 22.953C67.842 22.8224 67.7873 22.699 67.71 22.59Z" fill="white"/>
<path d="M84.21 26.78L77.68 22.33C77.4586 22.1801 77.1866 22.1244 76.9241 22.175C76.6615 22.2257 76.4299 22.3785 76.28 22.6C76.1302 22.8215 76.0744 23.0934 76.1251 23.3559C76.1757 23.6185 76.3286 23.8501 76.55 24L81.87 27.63L76.55 31.26C76.3348 31.4113 76.1878 31.6413 76.1411 31.9002C76.0943 32.1591 76.1514 32.426 76.3001 32.6431C76.4487 32.8602 76.6769 33.0099 76.9352 33.0599C77.1935 33.1098 77.4611 33.056 77.68 32.91L84.21 28.46C84.3441 28.3682 84.4537 28.245 84.5295 28.1013C84.6053 27.9575 84.6449 27.7975 84.6449 27.635C84.6449 27.4725 84.6053 27.3124 84.5295 27.1687C84.4537 27.0249 84.3441 26.9018 84.21 26.81V26.78Z" fill="white"/>
<path d="M73.94 19.83C73.8251 19.8016 73.7057 19.7962 73.5887 19.814C73.4717 19.8319 73.3593 19.8726 73.2581 19.9339C73.1568 19.9952 73.0687 20.0759 72.9986 20.1713C72.9286 20.2667 72.8781 20.375 72.85 20.49L69.41 34.29C69.3816 34.4049 69.3762 34.5243 69.394 34.6413C69.4118 34.7583 69.4526 34.8707 69.5139 34.9719C69.5752 35.0732 69.6558 35.1613 69.7513 35.2314C69.8467 35.3014 69.955 35.3519 70.07 35.38H70.29C70.4899 35.3794 70.684 35.3123 70.8415 35.1891C70.999 35.066 71.1111 34.8939 71.16 34.7L74.6 20.89C74.6484 20.6623 74.6068 20.4246 74.4837 20.2269C74.3606 20.0293 74.1657 19.887 73.94 19.83Z" fill="white"/>
<path d="M84 21C86.7614 21 89 18.7614 89 16C89 13.2386 86.7614 11 84 11C81.2386 11 79 13.2386 79 16C79 18.7614 81.2386 21 84 21Z" fill="white"/>
</svg>
