<svg width="169" height="158" viewBox="0 0 169 158" fill="none" xmlns="http://www.w3.org/2000/svg">
<circle cx="97" cy="72" r="72" fill="#DB6262"/>
<circle cx="72" cy="86" r="72" fill="#2C5D2D"/>
<path d="M53.3013 110.642H49.0825V115H46.8853V104.336H53.8286V106.116H49.0825V108.87H53.3013V110.642ZM57.1978 115H55.0737V107.075H57.1978V115ZM54.9492 105.024C54.9492 104.707 55.0542 104.446 55.2642 104.241C55.479 104.036 55.7695 103.933 56.1357 103.933C56.4971 103.933 56.7852 104.036 57 104.241C57.2148 104.446 57.3223 104.707 57.3223 105.024C57.3223 105.347 57.2124 105.61 56.9927 105.815C56.7778 106.021 56.4922 106.123 56.1357 106.123C55.7793 106.123 55.4912 106.021 55.2715 105.815C55.0566 105.61 54.9492 105.347 54.9492 105.024ZM61.4824 105.127V107.075H62.8374V108.628H61.4824V112.583C61.4824 112.876 61.5386 113.086 61.6509 113.213C61.7632 113.34 61.978 113.403 62.2954 113.403C62.5298 113.403 62.7373 113.386 62.918 113.352V114.956C62.5029 115.083 62.0757 115.146 61.6362 115.146C60.1519 115.146 59.395 114.397 59.3657 112.898V108.628H58.2085V107.075H59.3657V105.127H61.4824ZM72.5273 111.448C72.4443 112.595 72.0195 113.499 71.2529 114.158C70.4912 114.817 69.4854 115.146 68.2354 115.146C66.8682 115.146 65.7915 114.688 65.0054 113.77C64.2241 112.847 63.8335 111.582 63.8335 109.976V109.324C63.8335 108.298 64.0142 107.395 64.3755 106.614C64.7368 105.833 65.252 105.234 65.9209 104.819C66.5947 104.399 67.376 104.189 68.2646 104.189C69.4951 104.189 70.4863 104.519 71.2383 105.178C71.9902 105.837 72.4248 106.763 72.542 107.954H70.3447C70.291 107.266 70.0981 106.768 69.7661 106.46C69.439 106.147 68.9385 105.991 68.2646 105.991C67.5322 105.991 66.9829 106.255 66.6167 106.782C66.2554 107.305 66.0698 108.118 66.0601 109.221V110.027C66.0601 111.179 66.2334 112.021 66.5801 112.554C66.9316 113.086 67.4834 113.352 68.2354 113.352C68.9141 113.352 69.4194 113.198 69.7515 112.891C70.0884 112.578 70.2812 112.097 70.3301 111.448H72.5273ZM73.5015 110.964C73.5015 110.178 73.6528 109.478 73.9556 108.862C74.2583 108.247 74.6929 107.771 75.2593 107.434C75.8306 107.097 76.4922 106.929 77.2441 106.929C78.3135 106.929 79.1851 107.256 79.8589 107.91C80.5376 108.564 80.916 109.453 80.9941 110.576L81.0088 111.118C81.0088 112.334 80.6694 113.311 79.9907 114.048C79.312 114.78 78.4014 115.146 77.2588 115.146C76.1162 115.146 75.2031 114.78 74.5195 114.048C73.8408 113.315 73.5015 112.319 73.5015 111.06V110.964ZM75.6182 111.118C75.6182 111.87 75.7598 112.446 76.043 112.847C76.3262 113.242 76.7314 113.44 77.2588 113.44C77.7715 113.44 78.1719 113.245 78.46 112.854C78.748 112.458 78.8921 111.829 78.8921 110.964C78.8921 110.227 78.748 109.656 78.46 109.25C78.1719 108.845 77.7666 108.643 77.2441 108.643C76.7266 108.643 76.3262 108.845 76.043 109.25C75.7598 109.651 75.6182 110.273 75.6182 111.118ZM81.9829 110.979C81.9829 109.744 82.2588 108.76 82.8105 108.027C83.3672 107.295 84.1265 106.929 85.0884 106.929C85.8599 106.929 86.4971 107.217 87 107.793V103.75H89.124V115H87.2124L87.1099 114.158C86.5825 114.817 85.9038 115.146 85.0737 115.146C84.1411 115.146 83.3916 114.78 82.8252 114.048C82.2637 113.311 81.9829 112.288 81.9829 110.979ZM84.0996 111.133C84.0996 111.875 84.229 112.444 84.4878 112.839C84.7466 113.235 85.1226 113.433 85.6157 113.433C86.27 113.433 86.7314 113.157 87 112.605V109.478C86.7363 108.926 86.2798 108.65 85.6304 108.65C84.6099 108.65 84.0996 109.478 84.0996 111.133ZM94.4121 115.146C93.25 115.146 92.3027 114.79 91.5703 114.077C90.8428 113.364 90.479 112.415 90.479 111.228V111.023C90.479 110.227 90.6328 109.517 90.9404 108.892C91.248 108.262 91.6826 107.778 92.2441 107.441C92.8105 107.1 93.4551 106.929 94.1777 106.929C95.2617 106.929 96.1138 107.271 96.7339 107.954C97.3589 108.638 97.6714 109.607 97.6714 110.862V111.726H92.625C92.6934 112.244 92.8984 112.659 93.2402 112.971C93.5869 113.284 94.0239 113.44 94.5513 113.44C95.3667 113.44 96.0039 113.145 96.4629 112.554L97.5029 113.718C97.1855 114.167 96.7559 114.519 96.2139 114.773C95.6719 115.022 95.0713 115.146 94.4121 115.146ZM94.1704 108.643C93.7505 108.643 93.4087 108.784 93.145 109.067C92.8862 109.351 92.7202 109.756 92.647 110.283H95.5913V110.115C95.5815 109.646 95.4546 109.285 95.2104 109.031C94.9663 108.772 94.6196 108.643 94.1704 108.643ZM47.4492 130.803H43.5967L42.8643 133H40.5278L44.4976 122.336H46.5337L50.5254 133H48.189L47.4492 130.803ZM44.1899 129.023H46.856L45.5156 125.031L44.1899 129.023ZM54.6782 131.44C55.0688 131.44 55.3862 131.333 55.6304 131.118C55.8745 130.903 56.0015 130.617 56.0112 130.261H57.9961C57.9912 130.798 57.8447 131.291 57.5566 131.74C57.2686 132.185 56.873 132.531 56.3701 132.78C55.8721 133.024 55.3203 133.146 54.7148 133.146C53.582 133.146 52.6885 132.788 52.0342 132.07C51.3799 131.347 51.0527 130.351 51.0527 129.082V128.942C51.0527 127.722 51.3774 126.748 52.0269 126.02C52.6763 125.292 53.5674 124.929 54.7002 124.929C55.6914 124.929 56.4849 125.212 57.0806 125.778C57.6812 126.34 57.9863 127.089 57.9961 128.027H56.0112C56.0015 127.617 55.8745 127.285 55.6304 127.031C55.3862 126.772 55.064 126.643 54.6636 126.643C54.1704 126.643 53.7969 126.823 53.543 127.185C53.2939 127.541 53.1694 128.122 53.1694 128.928V129.147C53.1694 129.963 53.2939 130.549 53.543 130.905C53.792 131.262 54.1704 131.44 54.6782 131.44ZM63.7969 133C63.6992 132.81 63.6284 132.573 63.5845 132.29C63.0718 132.861 62.4053 133.146 61.585 133.146C60.8086 133.146 60.1641 132.922 59.6514 132.473C59.1436 132.023 58.8896 131.457 58.8896 130.773C58.8896 129.934 59.1997 129.289 59.8198 128.84C60.4448 128.391 61.3457 128.164 62.5225 128.159H63.4966V127.705C63.4966 127.338 63.4014 127.045 63.2109 126.826C63.0254 126.606 62.73 126.496 62.3247 126.496C61.9683 126.496 61.6875 126.582 61.4824 126.752C61.2822 126.923 61.1821 127.158 61.1821 127.456H59.0654C59.0654 126.997 59.207 126.572 59.4902 126.181C59.7734 125.791 60.1738 125.485 60.6914 125.266C61.209 125.041 61.79 124.929 62.4346 124.929C63.4111 124.929 64.1851 125.175 64.7563 125.668C65.3325 126.157 65.6206 126.845 65.6206 127.734V131.169C65.6255 131.921 65.7305 132.49 65.9355 132.875V133H63.7969ZM62.0464 131.528C62.3589 131.528 62.647 131.459 62.9106 131.323C63.1743 131.181 63.3696 130.993 63.4966 130.759V129.396H62.7056C61.646 129.396 61.082 129.763 61.0137 130.495L61.0063 130.62C61.0063 130.883 61.0991 131.101 61.2847 131.271C61.4702 131.442 61.7241 131.528 62.0464 131.528ZM66.917 128.979C66.917 127.744 67.1929 126.76 67.7446 126.027C68.3013 125.295 69.0605 124.929 70.0225 124.929C70.7939 124.929 71.4312 125.217 71.9341 125.793V121.75H74.0581V133H72.1465L72.0439 132.158C71.5166 132.817 70.8379 133.146 70.0078 133.146C69.0752 133.146 68.3257 132.78 67.7593 132.048C67.1978 131.311 66.917 130.288 66.917 128.979ZM69.0337 129.133C69.0337 129.875 69.1631 130.444 69.4219 130.839C69.6807 131.235 70.0566 131.433 70.5498 131.433C71.2041 131.433 71.6655 131.157 71.9341 130.605V127.478C71.6704 126.926 71.2139 126.65 70.5645 126.65C69.5439 126.65 69.0337 127.478 69.0337 129.133ZM79.3462 133.146C78.1841 133.146 77.2368 132.79 76.5044 132.077C75.7769 131.364 75.4131 130.415 75.4131 129.228V129.023C75.4131 128.227 75.5669 127.517 75.8745 126.892C76.1821 126.262 76.6167 125.778 77.1782 125.441C77.7446 125.1 78.3892 124.929 79.1118 124.929C80.1958 124.929 81.0479 125.271 81.668 125.954C82.293 126.638 82.6055 127.607 82.6055 128.862V129.726H77.5591C77.6274 130.244 77.8325 130.659 78.1743 130.971C78.521 131.284 78.958 131.44 79.4854 131.44C80.3008 131.44 80.938 131.145 81.397 130.554L82.437 131.718C82.1196 132.167 81.6899 132.519 81.1479 132.773C80.606 133.022 80.0054 133.146 79.3462 133.146ZM79.1045 126.643C78.6846 126.643 78.3428 126.784 78.0791 127.067C77.8203 127.351 77.6543 127.756 77.5811 128.283H80.5254V128.115C80.5156 127.646 80.3887 127.285 80.1445 127.031C79.9004 126.772 79.5537 126.643 79.1045 126.643ZM85.7988 125.075L85.8647 125.961C86.4263 125.273 87.1855 124.929 88.1426 124.929C89.1631 124.929 89.8638 125.332 90.2446 126.137C90.8013 125.332 91.5947 124.929 92.625 124.929C93.4844 124.929 94.124 125.18 94.5439 125.683C94.9639 126.181 95.1738 126.933 95.1738 127.939V133H93.0498V127.946C93.0498 127.497 92.9619 127.17 92.7861 126.965C92.6104 126.755 92.3003 126.65 91.856 126.65C91.2212 126.65 90.7817 126.953 90.5376 127.558L90.5449 133H88.4282V127.954C88.4282 127.495 88.3379 127.163 88.1572 126.958C87.9766 126.752 87.6689 126.65 87.2344 126.65C86.6338 126.65 86.1992 126.899 85.9307 127.397V133H83.814V125.075H85.7988ZM99.7661 130.004L101.231 125.075H103.501L100.315 134.23L100.14 134.648C99.666 135.683 98.8848 136.201 97.7959 136.201C97.4883 136.201 97.1758 136.154 96.8584 136.062V134.458L97.1807 134.465C97.5811 134.465 97.8789 134.404 98.0742 134.282C98.2744 134.16 98.4307 133.957 98.543 133.674L98.792 133.022L96.0161 125.075H98.2939L99.7661 130.004Z" fill="white"/>
<path d="M67.71 81.5902C67.5601 81.3714 67.3295 81.2211 67.0688 81.1723C66.8081 81.1236 66.5388 81.1803 66.32 81.3302L59.79 85.7802C59.6559 85.872 59.5462 85.9951 59.4705 86.1389C59.3947 86.2826 59.3551 86.4427 59.3551 86.6052C59.3551 86.7677 59.3947 86.9277 59.4705 87.0715C59.5462 87.2152 59.6559 87.3383 59.79 87.4302L66.32 91.8802C66.4282 91.9563 66.5506 92.0102 66.6798 92.0386C66.8091 92.0671 66.9427 92.0697 67.0729 92.0462C67.2032 92.0226 67.3274 91.9735 67.4385 91.9015C67.5496 91.8296 67.6454 91.7363 67.7201 91.6271C67.7949 91.5179 67.8473 91.395 67.8742 91.2654C67.9011 91.1358 67.902 91.0022 67.8769 90.8722C67.8518 90.7423 67.8011 90.6186 67.7278 90.5084C67.6545 90.3982 67.5601 90.3036 67.45 90.2302L62.13 86.6102L67.45 83.0002C67.5611 82.9259 67.6562 82.8301 67.7297 82.7184C67.8032 82.6068 67.8535 82.4815 67.8778 82.3501C67.902 82.2186 67.8996 82.0837 67.8708 81.9531C67.842 81.8226 67.7873 81.6992 67.71 81.5902Z" fill="white"/>
<path d="M84.21 85.7799L77.68 81.3299C77.4586 81.1801 77.1866 81.1243 76.9241 81.175C76.6615 81.2256 76.4299 81.3785 76.28 81.5999C76.1302 81.8214 76.0744 82.0933 76.1251 82.3559C76.1757 82.6184 76.3286 82.8501 76.55 82.9999L81.87 86.6299L76.55 90.2599C76.3348 90.4112 76.1878 90.6413 76.1411 90.9002C76.0943 91.1591 76.1514 91.426 76.3001 91.6431C76.4487 91.8601 76.6769 92.0099 76.9352 92.0598C77.1935 92.1098 77.4611 92.0559 77.68 91.9099L84.21 87.4599C84.3441 87.3681 84.4537 87.245 84.5295 87.1012C84.6053 86.9575 84.6449 86.7974 84.6449 86.6349C84.6449 86.4724 84.6053 86.3124 84.5295 86.1686C84.4537 86.0249 84.3441 85.9018 84.21 85.8099V85.7799Z" fill="white"/>
<path d="M73.94 78.83C73.8251 78.8016 73.7057 78.7962 73.5887 78.814C73.4717 78.8318 73.3593 78.8725 73.2581 78.9338C73.1568 78.9952 73.0687 79.0758 72.9986 79.1713C72.9286 79.2667 72.8781 79.375 72.85 79.49L69.41 93.29C69.3816 93.4049 69.3762 93.5242 69.394 93.6413C69.4118 93.7583 69.4526 93.8706 69.5139 93.9719C69.5752 94.0731 69.6558 94.1613 69.7513 94.2313C69.8467 94.3013 69.955 94.3518 70.07 94.38H70.29C70.4899 94.3794 70.684 94.3122 70.8415 94.1891C70.999 94.0659 71.1111 93.8938 71.16 93.7L74.6 79.89C74.6484 79.6622 74.6068 79.4245 74.4837 79.2269C74.3606 79.0292 74.1657 78.8869 73.94 78.83Z" fill="white"/>
<path d="M84 80C86.7614 80 89 77.7614 89 75C89 72.2386 86.7614 70 84 70C81.2386 70 79 72.2386 79 75C79 77.7614 81.2386 80 84 80Z" fill="white"/>
</svg>
